<svg width="908.9" height="84" viewBox="0 0 908.9 84" xmlns="http://www.w3.org/2000/svg"><g id="svgGroup" stroke-linecap="round" fill-rule="evenodd" font-size="9pt" stroke="#fff" stroke-width="0.25mm" fill="none" style="stroke:#000;stroke-width:0.25mm;fill:none"><path d="M 0 67.2 L 1.5 59.4 L 28.2 30.9 L 7.9 30.9 L 9.2 24.2 L 51.3 24.2 L 49.7 31.4 L 23.7 60.5 L 45.8 60.5 L 44.6 67.2 L 0 67.2 Z" id="0" vector-effect="non-scaling-stroke"/><path d="M 56.4 36.8 L 58.3 27.9 Q 63.4 25.4 68.75 24.25 Q 74.1 23.1 80.7 23.1 Q 87.1 23.1 91.3 24.1 A 24.305 24.305 0 0 1 94.211 24.977 Q 96.438 25.813 98 27 A 11.383 11.383 0 0 1 100.179 29.145 A 9.457 9.457 0 0 1 101.5 31.5 A 14.74 14.74 0 0 1 102.335 34.834 A 19.216 19.216 0 0 1 102.5 37.4 A 33.197 33.197 0 0 1 102.412 39.762 A 41.742 41.742 0 0 1 102.25 41.5 Q 102.078 43.013 101.883 44.194 A 30.68 30.68 0 0 1 101.7 45.2 L 97 67.2 L 80.9 67.2 L 79.1 60.8 L 78.5 60.8 Q 75.3 64.3 71.05 66.15 Q 66.8 68 62.6 68 Q 60.2 68 57.9 67.3 Q 55.6 66.6 53.8 65.15 A 10.513 10.513 0 0 1 51.205 62.034 A 12.398 12.398 0 0 1 50.9 61.45 A 10.315 10.315 0 0 1 50.058 58.877 Q 49.8 57.55 49.8 56 Q 49.8 50.982 52.454 47.966 A 9.774 9.774 0 0 1 52.65 47.75 A 16.255 16.255 0 0 1 57.166 44.393 A 21.314 21.314 0 0 1 60.15 43.15 A 37.63 37.63 0 0 1 65.761 41.77 A 49.406 49.406 0 0 1 70.65 41.2 Q 76.5 40.8 82.4 40.8 A 40.751 40.751 0 0 0 82.506 40.247 Q 82.675 39.338 82.9 37.95 A 26.432 26.432 0 0 0 83.1 36.469 Q 83.174 35.757 83.193 35.127 A 14.033 14.033 0 0 0 83.2 34.7 Q 83.2 32.9 82.25 31.35 Q 81.324 29.84 78.452 29.801 A 11.309 11.309 0 0 0 78.3 29.8 A 9.434 9.434 0 0 0 76.339 29.99 Q 74.297 30.425 73.15 31.85 A 10.195 10.195 0 0 0 71.28 35.551 A 12.644 12.644 0 0 0 71 36.8 L 56.4 36.8 Z M 79.7 53.2 L 81.3 45.5 L 79.5 45.5 A 18.742 18.742 0 0 0 77.284 45.624 Q 76.158 45.758 75.198 46.038 A 10.138 10.138 0 0 0 74.55 46.25 A 11.476 11.476 0 0 0 72.923 46.985 Q 72.052 47.468 71.391 48.069 A 6.923 6.923 0 0 0 71.25 48.2 A 7.884 7.884 0 0 0 69.747 50.158 A 7.278 7.278 0 0 0 69.4 50.9 Q 68.8 52.4 68.8 53.9 A 7.332 7.332 0 0 0 68.919 55.267 Q 69.186 56.67 70.05 57.5 Q 71.3 58.7 73 58.7 A 6.283 6.283 0 0 0 75.67 58.084 A 8.777 8.777 0 0 0 77.15 57.2 Q 79.2 55.7 79.7 53.2 Z" id="1" vector-effect="non-scaling-stroke"/><path d="M 153.6 50.7 L 150.7 64.8 Q 146.5 66.5 141.85 67.25 A 56.132 56.132 0 0 1 136.97 67.807 Q 134.463 67.988 131.673 67.999 A 91.88 91.88 0 0 1 131.3 68 A 44.982 44.982 0 0 1 125.719 67.668 A 35.896 35.896 0 0 1 121.75 66.95 A 23.376 23.376 0 0 1 117.22 65.373 A 19.337 19.337 0 0 1 114.2 63.6 Q 111 61.3 109.2 57.65 A 16.629 16.629 0 0 1 107.822 53.474 Q 107.454 51.592 107.407 49.434 A 29.232 29.232 0 0 1 107.4 48.8 A 27.749 27.749 0 0 1 108.419 41.198 A 25.234 25.234 0 0 1 109.25 38.75 Q 111.1 34.1 114.85 30.6 A 23.653 23.653 0 0 1 120.026 26.973 A 31.41 31.41 0 0 1 124.4 25.1 A 34.343 34.343 0 0 1 130.321 23.664 Q 133.255 23.208 136.596 23.121 A 61.368 61.368 0 0 1 138.2 23.1 Q 143.761 23.1 148.077 23.868 A 37.033 37.033 0 0 1 149.5 24.15 Q 154.3 25.2 157.4 28.9 L 154.6 41.7 L 141 41.7 Q 141.086 40.239 141.172 39.074 A 118.077 118.077 0 0 1 141.2 38.7 Q 141.3 37.4 141.3 35.8 Q 141.3 33.301 140.873 31.931 A 4.181 4.181 0 0 0 140.6 31.25 Q 139.996 30.085 138.722 29.925 A 3.391 3.391 0 0 0 138.3 29.9 A 5.459 5.459 0 0 0 134.718 31.252 A 8.642 8.642 0 0 0 133.4 32.65 A 21.457 21.457 0 0 0 131.171 36.303 A 27.68 27.68 0 0 0 129.95 39.25 Q 128.6 43.1 127.95 47.35 Q 127.3 51.6 127.3 54.6 Q 127.3 55.7 127.4 56.85 Q 127.5 58 127.85 59 A 5.114 5.114 0 0 0 128.201 59.792 Q 128.46 60.26 128.8 60.6 A 1.953 1.953 0 0 0 129.685 61.1 Q 130.051 61.2 130.5 61.2 A 4.066 4.066 0 0 0 131.362 61.101 Q 131.778 61.011 132.236 60.837 A 8.65 8.65 0 0 0 132.8 60.6 A 7.381 7.381 0 0 0 134.231 59.719 A 9.922 9.922 0 0 0 135.3 58.75 A 12.168 12.168 0 0 0 136.331 57.513 Q 136.819 56.847 137.289 56.048 A 21.928 21.928 0 0 0 137.6 55.5 Q 138.631 53.625 139.223 51.047 A 24.431 24.431 0 0 0 139.3 50.7 L 153.6 50.7 Z" id="2" vector-effect="non-scaling-stroke"/><path d="M 192.1 0 L 185.6 30.6 L 186.3 30.6 A 25.078 25.078 0 0 1 189.487 27.919 A 29.305 29.305 0 0 1 190.7 27.1 Q 192.8 25.7 195.7 24.6 Q 198.6 23.5 202.2 23.5 A 16.776 16.776 0 0 1 206.093 23.929 A 12.12 12.12 0 0 1 210.8 26.15 A 8.518 8.518 0 0 1 214.156 32.383 A 11.608 11.608 0 0 1 214.2 33.4 A 15.548 15.548 0 0 1 214.134 34.789 Q 214.059 35.62 213.9 36.55 Q 213.6 38.3 213.2 40.25 Q 212.8 42.2 212.35 44.15 Q 211.9 46.1 211.6 47.7 L 207.4 67.2 L 187.1 67.2 L 192.6 41.1 Q 192.8 39.8 193.1 38.45 A 13.674 13.674 0 0 0 193.315 37.239 Q 193.4 36.584 193.4 36 A 4.91 4.91 0 0 0 193.29 34.932 Q 193.114 34.143 192.657 33.559 A 3.132 3.132 0 0 0 192.65 33.55 A 2.406 2.406 0 0 0 191.264 32.693 A 3.783 3.783 0 0 0 190.4 32.6 A 5.129 5.129 0 0 0 187.89 33.272 A 6.951 6.951 0 0 0 186.95 33.9 A 31.718 31.718 0 0 0 185.904 34.758 Q 185.447 35.151 185.071 35.511 A 13.094 13.094 0 0 0 184.4 36.2 L 177.8 67.2 L 157.4 67.2 L 171.6 0 L 192.1 0 Z" id="3" vector-effect="non-scaling-stroke"/><path d="M 222.3 36.8 L 224.2 27.9 Q 229.3 25.4 234.65 24.25 Q 240 23.1 246.6 23.1 Q 253 23.1 257.2 24.1 A 24.305 24.305 0 0 1 260.111 24.977 Q 262.338 25.813 263.9 27 A 11.383 11.383 0 0 1 266.079 29.145 A 9.457 9.457 0 0 1 267.4 31.5 A 14.74 14.74 0 0 1 268.235 34.834 A 19.216 19.216 0 0 1 268.4 37.4 A 33.197 33.197 0 0 1 268.312 39.762 A 41.742 41.742 0 0 1 268.15 41.5 Q 267.978 43.013 267.783 44.194 A 30.68 30.68 0 0 1 267.6 45.2 L 262.9 67.2 L 246.8 67.2 L 245 60.8 L 244.4 60.8 Q 241.2 64.3 236.95 66.15 Q 232.7 68 228.5 68 Q 226.1 68 223.8 67.3 Q 221.5 66.6 219.7 65.15 A 10.513 10.513 0 0 1 217.105 62.034 A 12.398 12.398 0 0 1 216.8 61.45 A 10.315 10.315 0 0 1 215.958 58.877 Q 215.7 57.55 215.7 56 Q 215.7 50.982 218.354 47.966 A 9.774 9.774 0 0 1 218.55 47.75 A 16.255 16.255 0 0 1 223.066 44.393 A 21.314 21.314 0 0 1 226.05 43.15 A 37.63 37.63 0 0 1 231.661 41.77 A 49.406 49.406 0 0 1 236.55 41.2 Q 242.4 40.8 248.3 40.8 A 40.751 40.751 0 0 0 248.406 40.247 Q 248.575 39.338 248.8 37.95 A 26.432 26.432 0 0 0 249 36.469 Q 249.074 35.757 249.093 35.127 A 14.033 14.033 0 0 0 249.1 34.7 Q 249.1 32.9 248.15 31.35 Q 247.224 29.84 244.352 29.801 A 11.309 11.309 0 0 0 244.2 29.8 A 9.434 9.434 0 0 0 242.239 29.99 Q 240.197 30.425 239.05 31.85 A 10.195 10.195 0 0 0 237.18 35.551 A 12.644 12.644 0 0 0 236.9 36.8 L 222.3 36.8 Z M 245.6 53.2 L 247.2 45.5 L 245.4 45.5 A 18.742 18.742 0 0 0 243.184 45.624 Q 242.058 45.758 241.098 46.038 A 10.138 10.138 0 0 0 240.45 46.25 A 11.476 11.476 0 0 0 238.823 46.985 Q 237.952 47.468 237.291 48.069 A 6.923 6.923 0 0 0 237.15 48.2 A 7.884 7.884 0 0 0 235.647 50.158 A 7.278 7.278 0 0 0 235.3 50.9 Q 234.7 52.4 234.7 53.9 A 7.332 7.332 0 0 0 234.819 55.267 Q 235.086 56.67 235.95 57.5 Q 237.2 58.7 238.9 58.7 A 6.283 6.283 0 0 0 241.57 58.084 A 8.777 8.777 0 0 0 243.05 57.2 Q 245.1 55.7 245.6 53.2 Z" id="4" vector-effect="non-scaling-stroke"/><path d="M 271.2 67.2 L 280.3 24.2 L 296.6 24.2 L 298.1 31.7 L 298.8 31.7 Q 301.1 28.1 304.7 25.6 A 13.079 13.079 0 0 1 308.856 23.73 Q 310.624 23.262 312.711 23.142 A 25.825 25.825 0 0 1 314.2 23.1 Q 314.6 23.1 315.45 23.15 A 9.174 9.174 0 0 1 316.291 23.241 Q 316.73 23.308 317.211 23.418 A 15.371 15.371 0 0 1 317.35 23.45 A 15.415 15.415 0 0 1 318.702 23.841 A 18.873 18.873 0 0 1 319.55 24.15 Q 320.7 24.6 321.8 25.4 L 317.4 46 L 306.5 46 Q 306.3 39.8 305.4 37.35 Q 304.885 35.948 304.01 35.348 A 2.606 2.606 0 0 0 302.5 34.9 A 5.108 5.108 0 0 0 301.395 35.027 Q 300.889 35.139 300.35 35.35 Q 299.533 35.67 298.69 36.52 A 9.84 9.84 0 0 0 298 37.3 L 291.6 67.2 L 271.2 67.2 Z" id="5" vector-effect="non-scaling-stroke"/><path d="M 324.5 24.2 L 345.6 24.2 L 348.6 53.6 L 364.4 24.2 L 375 24.2 L 350.9 67.2 Q 347.3 73.5 343.6 76.9 A 25.096 25.096 0 0 1 338.011 80.825 A 22.615 22.615 0 0 1 335.55 81.9 Q 331.2 83.5 325.95 83.75 Q 321.049 83.983 314.883 83.999 A 351.445 351.445 0 0 1 314 84 L 315.5 77.1 Q 318.8 77.1 321.65 77 A 30.486 30.486 0 0 0 323.319 76.898 Q 325.004 76.746 326.162 76.411 A 8.976 8.976 0 0 0 326.2 76.4 Q 328.087 75.908 329.099 74.776 A 4.221 4.221 0 0 0 329.5 74.25 A 5.28 5.28 0 0 0 330.1 72.916 Q 330.5 71.598 330.5 69.7 Q 330.5 67.981 330.242 65.819 A 48.976 48.976 0 0 0 330.15 65.1 Q 329.8 62.5 329.4 59.6 L 324.5 24.2 Z" id="6" vector-effect="non-scaling-stroke"/><path d="M 390.6 30.9 L 392 24.2 A 64.058 64.058 0 0 0 395.065 23.462 Q 396.925 22.963 398.5 22.4 A 25.728 25.728 0 0 0 403.055 20.267 A 23.61 23.61 0 0 0 403.65 19.9 A 24.548 24.548 0 0 0 407.063 17.256 A 28.666 28.666 0 0 0 408.15 16.2 A 51.451 51.451 0 0 0 410.098 14.084 Q 411.394 12.6 412.8 10.8 L 423.1 10.8 L 420.2 24.2 L 428 24.2 L 426.7 30.9 L 418.8 30.9 L 414.7 50.4 A 106.634 106.634 0 0 0 414.301 52.317 Q 414.127 53.195 413.988 53.984 A 61.456 61.456 0 0 0 413.9 54.5 A 33.902 33.902 0 0 0 413.769 55.35 Q 413.64 56.269 413.609 56.924 A 8.174 8.174 0 0 0 413.6 57.3 A 4.19 4.19 0 0 0 413.688 58.194 Q 413.957 59.423 415.05 59.8 A 6.007 6.007 0 0 0 415.93 60.018 Q 417.345 60.273 419.933 60.297 A 59.654 59.654 0 0 0 420.5 60.3 L 419 67.2 A 5.119 5.119 0 0 1 418.547 67.305 Q 418.046 67.399 417.317 67.463 A 24.46 24.46 0 0 1 416.85 67.5 Q 415.4 67.6 413.65 67.75 Q 411.9 67.9 410.05 67.95 A 153.527 153.527 0 0 1 408.517 67.984 Q 407.82 67.996 407.203 67.999 A 83.825 83.825 0 0 1 406.8 68 Q 404.3 68 401.9 67.65 A 13.415 13.415 0 0 1 399.112 66.945 A 11.426 11.426 0 0 1 397.6 66.25 A 7.84 7.84 0 0 1 394.659 63.385 A 9.345 9.345 0 0 1 394.55 63.2 A 7.65 7.65 0 0 1 393.805 61.344 Q 393.565 60.438 393.467 59.359 A 17.301 17.301 0 0 1 393.4 57.8 A 24.829 24.829 0 0 1 393.419 56.86 Q 393.437 56.407 393.469 55.892 A 55.374 55.374 0 0 1 393.55 54.8 Q 393.695 53.057 394.169 50.939 A 39.917 39.917 0 0 1 394.2 50.8 L 398.4 30.9 L 390.6 30.9 Z" id="8" vector-effect="non-scaling-stroke"/><path d="M 460.3 0 L 453.8 30.6 L 454.5 30.6 A 25.078 25.078 0 0 1 457.687 27.919 A 29.305 29.305 0 0 1 458.9 27.1 Q 461 25.7 463.9 24.6 Q 466.8 23.5 470.4 23.5 A 16.776 16.776 0 0 1 474.293 23.929 A 12.12 12.12 0 0 1 479 26.15 A 8.518 8.518 0 0 1 482.356 32.383 A 11.608 11.608 0 0 1 482.4 33.4 A 15.548 15.548 0 0 1 482.334 34.789 Q 482.259 35.62 482.1 36.55 Q 481.8 38.3 481.4 40.25 Q 481 42.2 480.55 44.15 Q 480.1 46.1 479.8 47.7 L 475.6 67.2 L 455.3 67.2 L 460.8 41.1 Q 461 39.8 461.3 38.45 A 13.674 13.674 0 0 0 461.515 37.239 Q 461.6 36.584 461.6 36 A 4.91 4.91 0 0 0 461.49 34.932 Q 461.314 34.143 460.857 33.559 A 3.132 3.132 0 0 0 460.85 33.55 A 2.406 2.406 0 0 0 459.464 32.693 A 3.783 3.783 0 0 0 458.6 32.6 A 5.129 5.129 0 0 0 456.09 33.272 A 6.951 6.951 0 0 0 455.15 33.9 A 31.718 31.718 0 0 0 454.104 34.758 Q 453.647 35.151 453.271 35.511 A 13.094 13.094 0 0 0 452.6 36.2 L 446 67.2 L 425.6 67.2 L 439.8 0 L 460.3 0 Z" id="9" vector-effect="non-scaling-stroke"/><path d="M 513.8 24.2 L 504.5 67.2 L 484.2 67.2 L 493.3 24.2 L 513.8 24.2 Z M 516.191 13.124 A 9.385 9.385 0 0 0 516.4 11.1 A 9.69 9.69 0 0 0 516.209 9.123 A 6.131 6.131 0 0 0 513.7 5.2 A 10.059 10.059 0 0 0 510.27 3.66 A 13.293 13.293 0 0 0 507.1 3.3 Q 504.9 3.3 502.85 3.9 A 12.967 12.967 0 0 0 501.917 4.211 A 10.903 10.903 0 0 0 499.25 5.65 Q 497.7 6.8 496.8 8.55 A 7.837 7.837 0 0 0 496.185 10.167 A 9.239 9.239 0 0 0 495.9 12.5 A 9.89 9.89 0 0 0 496.138 14.74 A 6.108 6.108 0 0 0 498.6 18.5 A 10.085 10.085 0 0 0 502.21 20.074 A 13.925 13.925 0 0 0 505.3 20.4 Q 507.4 20.4 509.4 19.8 A 12.246 12.246 0 0 0 509.648 19.723 A 10.74 10.74 0 0 0 512.95 18 Q 514.5 16.8 515.45 15.1 A 7.207 7.207 0 0 0 516.191 13.124 Z" id="10" vector-effect="non-scaling-stroke"/><path d="M 564.4 47.1 L 536.3 47.1 A 42.541 42.541 0 0 0 535.868 50.03 A 36.128 36.128 0 0 0 535.75 51.3 Q 535.6 53.3 535.6 54.9 Q 535.6 55.8 535.7 56.9 A 8.285 8.285 0 0 0 535.982 58.435 A 7.329 7.329 0 0 0 536.15 58.95 A 4.618 4.618 0 0 0 536.705 60.02 A 4.036 4.036 0 0 0 537.15 60.55 Q 537.749 61.149 538.814 61.196 A 4.197 4.197 0 0 0 539 61.2 A 3.27 3.27 0 0 0 539.773 61.101 Q 540.367 60.956 541.05 60.6 A 8.829 8.829 0 0 0 542.272 59.821 A 12.044 12.044 0 0 0 543.35 58.9 A 13.612 13.612 0 0 0 544.578 57.547 A 17.991 17.991 0 0 0 545.55 56.2 A 13.341 13.341 0 0 0 546.959 53.336 A 15.448 15.448 0 0 0 547.2 52.6 L 563.6 52.6 L 561 63.3 A 19.402 19.402 0 0 1 558.266 64.769 A 24.147 24.147 0 0 1 556.4 65.5 Q 553.8 66.4 550.9 66.95 Q 548 67.5 545 67.75 A 72.366 72.366 0 0 1 541.017 67.976 A 61.428 61.428 0 0 1 539.3 68 A 48.893 48.893 0 0 1 533.359 67.653 A 40.304 40.304 0 0 1 530 67.1 A 22.276 22.276 0 0 1 525.396 65.625 A 18.562 18.562 0 0 1 522.5 64 A 15.393 15.393 0 0 1 517.479 58.207 A 17.98 17.98 0 0 1 517.45 58.15 A 16.064 16.064 0 0 1 516.092 54.203 Q 515.6 51.884 515.6 49.1 Q 515.6 44.2 517.15 39.5 Q 518.7 34.8 522.35 31.15 A 21.99 21.99 0 0 1 526.856 27.726 Q 528.924 26.521 531.426 25.567 A 37.683 37.683 0 0 1 532.15 25.3 A 33.808 33.808 0 0 1 537.65 23.876 Q 540.392 23.391 543.554 23.209 A 68.805 68.805 0 0 1 547.5 23.1 A 52.095 52.095 0 0 1 552.733 23.345 Q 558.25 23.904 561.733 25.736 A 14.15 14.15 0 0 1 562.55 26.2 A 10.088 10.088 0 0 1 567.419 33.525 A 14.925 14.925 0 0 1 567.6 35.9 Q 567.6 38.6 566.8 41.75 A 17.869 17.869 0 0 1 565.819 44.621 A 13.6 13.6 0 0 1 564.4 47.1 Z M 537.3 42.5 L 548.7 42.5 A 196.943 196.943 0 0 0 549 40.644 A 221.197 221.197 0 0 0 549.1 40 Q 549.3 38.9 549.45 37.6 Q 549.6 36.3 549.6 35.2 A 15.081 15.081 0 0 0 549.541 33.816 Q 549.358 31.834 548.6 31 A 3.472 3.472 0 0 0 547.63 30.238 A 3.063 3.063 0 0 0 546.2 29.9 A 4.657 4.657 0 0 0 543.42 30.823 A 5.814 5.814 0 0 0 543.25 30.95 A 9.468 9.468 0 0 0 541.81 32.353 A 12.683 12.683 0 0 0 540.8 33.75 A 22.388 22.388 0 0 0 539.626 35.877 A 28.453 28.453 0 0 0 538.8 37.75 A 34.176 34.176 0 0 0 537.376 42.188 A 37.526 37.526 0 0 0 537.3 42.5 Z" id="11" vector-effect="non-scaling-stroke"/><path d="M 602.9 0 L 588.6 67.2 L 568.2 67.2 L 582.4 0 L 602.9 0 Z" id="12" vector-effect="non-scaling-stroke"/><path d="M 648.4 47.1 L 620.3 47.1 A 42.541 42.541 0 0 0 619.868 50.03 A 36.128 36.128 0 0 0 619.75 51.3 Q 619.6 53.3 619.6 54.9 Q 619.6 55.8 619.7 56.9 A 8.285 8.285 0 0 0 619.982 58.435 A 7.329 7.329 0 0 0 620.15 58.95 A 4.618 4.618 0 0 0 620.705 60.02 A 4.036 4.036 0 0 0 621.15 60.55 Q 621.749 61.149 622.814 61.196 A 4.197 4.197 0 0 0 623 61.2 A 3.27 3.27 0 0 0 623.773 61.101 Q 624.367 60.956 625.05 60.6 A 8.829 8.829 0 0 0 626.272 59.821 A 12.044 12.044 0 0 0 627.35 58.9 A 13.612 13.612 0 0 0 628.578 57.547 A 17.991 17.991 0 0 0 629.55 56.2 A 13.341 13.341 0 0 0 630.959 53.336 A 15.448 15.448 0 0 0 631.2 52.6 L 647.6 52.6 L 645 63.3 A 19.402 19.402 0 0 1 642.266 64.769 A 24.147 24.147 0 0 1 640.4 65.5 Q 637.8 66.4 634.9 66.95 Q 632 67.5 629 67.75 A 72.366 72.366 0 0 1 625.017 67.976 A 61.428 61.428 0 0 1 623.3 68 A 48.893 48.893 0 0 1 617.359 67.653 A 40.304 40.304 0 0 1 614 67.1 A 22.276 22.276 0 0 1 609.396 65.625 A 18.562 18.562 0 0 1 606.5 64 A 15.393 15.393 0 0 1 601.479 58.207 A 17.98 17.98 0 0 1 601.45 58.15 A 16.064 16.064 0 0 1 600.092 54.203 Q 599.6 51.884 599.6 49.1 Q 599.6 44.2 601.15 39.5 Q 602.7 34.8 606.35 31.15 A 21.99 21.99 0 0 1 610.856 27.726 Q 612.924 26.521 615.426 25.567 A 37.683 37.683 0 0 1 616.15 25.3 A 33.808 33.808 0 0 1 621.65 23.876 Q 624.392 23.391 627.554 23.209 A 68.805 68.805 0 0 1 631.5 23.1 A 52.095 52.095 0 0 1 636.733 23.345 Q 642.25 23.904 645.733 25.736 A 14.15 14.15 0 0 1 646.55 26.2 A 10.088 10.088 0 0 1 651.419 33.525 A 14.925 14.925 0 0 1 651.6 35.9 Q 651.6 38.6 650.8 41.75 A 17.869 17.869 0 0 1 649.819 44.621 A 13.6 13.6 0 0 1 648.4 47.1 Z M 621.3 42.5 L 632.7 42.5 A 196.943 196.943 0 0 0 633 40.644 A 221.197 221.197 0 0 0 633.1 40 Q 633.3 38.9 633.45 37.6 Q 633.6 36.3 633.6 35.2 A 15.081 15.081 0 0 0 633.541 33.816 Q 633.358 31.834 632.6 31 A 3.472 3.472 0 0 0 631.63 30.238 A 3.063 3.063 0 0 0 630.2 29.9 A 4.657 4.657 0 0 0 627.42 30.823 A 5.814 5.814 0 0 0 627.25 30.95 A 9.468 9.468 0 0 0 625.81 32.353 A 12.683 12.683 0 0 0 624.8 33.75 A 22.388 22.388 0 0 0 623.626 35.877 A 28.453 28.453 0 0 0 622.8 37.75 A 34.176 34.176 0 0 0 621.376 42.188 A 37.526 37.526 0 0 0 621.3 42.5 Z" id="13" vector-effect="non-scaling-stroke"/><path d="M 679.4 30.6 L 680 30.6 Q 682.1 28.6 684.7 26.9 Q 687 25.5 690.2 24.3 Q 693.4 23.1 697.4 23.1 A 16.673 16.673 0 0 1 700.034 23.294 Q 702.898 23.753 704.55 25.3 Q 706.9 27.5 707.2 30.7 L 707.8 30.7 Q 710.1 28.6 712.8 26.9 Q 715.1 25.5 718.2 24.3 Q 721.3 23.1 724.8 23.1 A 15.478 15.478 0 0 1 728.53 23.526 A 11.082 11.082 0 0 1 733.25 25.95 A 9.234 9.234 0 0 1 736.484 32.675 A 11.999 11.999 0 0 1 736.5 33.3 Q 736.5 35.378 735.847 38.679 A 59.848 59.848 0 0 1 735.7 39.4 Q 734.9 43.2 733.9 47.7 L 729.7 67.2 L 710 67.2 L 715.4 41.1 Q 715.7 39.6 716 38.2 A 18.043 18.043 0 0 0 716.158 37.374 Q 716.299 36.522 716.3 35.905 A 6.04 6.04 0 0 0 716.3 35.9 A 4.05 4.05 0 0 0 716.141 34.742 A 3.281 3.281 0 0 0 715.5 33.55 A 2.592 2.592 0 0 0 713.988 32.675 A 3.923 3.923 0 0 0 713.2 32.6 Q 711.3 32.6 709.65 33.95 A 58.908 58.908 0 0 0 708.692 34.75 Q 707.783 35.526 707.184 36.117 A 15.983 15.983 0 0 0 707.1 36.2 L 700.6 67.2 L 681.9 67.2 L 687.4 41.1 Q 687.6 39.8 687.9 38.45 A 13.674 13.674 0 0 0 688.115 37.239 Q 688.2 36.584 688.2 36 A 4.91 4.91 0 0 0 688.09 34.932 Q 687.914 34.143 687.457 33.559 A 3.132 3.132 0 0 0 687.45 33.55 A 2.406 2.406 0 0 0 686.064 32.693 A 3.783 3.783 0 0 0 685.2 32.6 A 5.129 5.129 0 0 0 682.69 33.272 A 6.951 6.951 0 0 0 681.75 33.9 A 48.491 48.491 0 0 0 680.792 34.673 Q 679.883 35.428 679.284 36.017 A 13.678 13.678 0 0 0 679.2 36.1 L 672.6 67.2 L 652.2 67.2 L 661.3 24.2 L 677.6 24.2 L 679.4 30.6 Z" id="14" vector-effect="non-scaling-stroke"/><path d="M 744.6 36.8 L 746.5 27.9 Q 751.6 25.4 756.95 24.25 Q 762.3 23.1 768.9 23.1 Q 775.3 23.1 779.5 24.1 A 24.305 24.305 0 0 1 782.411 24.977 Q 784.638 25.813 786.2 27 A 11.383 11.383 0 0 1 788.379 29.145 A 9.457 9.457 0 0 1 789.7 31.5 A 14.74 14.74 0 0 1 790.535 34.834 A 19.216 19.216 0 0 1 790.7 37.4 A 33.197 33.197 0 0 1 790.612 39.762 A 41.742 41.742 0 0 1 790.45 41.5 Q 790.278 43.013 790.083 44.194 A 30.68 30.68 0 0 1 789.9 45.2 L 785.2 67.2 L 769.1 67.2 L 767.3 60.8 L 766.7 60.8 Q 763.5 64.3 759.25 66.15 Q 755 68 750.8 68 Q 748.4 68 746.1 67.3 Q 743.8 66.6 742 65.15 A 10.513 10.513 0 0 1 739.405 62.034 A 12.398 12.398 0 0 1 739.1 61.45 A 10.315 10.315 0 0 1 738.258 58.877 Q 738 57.55 738 56 Q 738 50.982 740.654 47.966 A 9.774 9.774 0 0 1 740.85 47.75 A 16.255 16.255 0 0 1 745.366 44.393 A 21.314 21.314 0 0 1 748.35 43.15 A 37.63 37.63 0 0 1 753.961 41.77 A 49.406 49.406 0 0 1 758.85 41.2 Q 764.7 40.8 770.6 40.8 A 40.751 40.751 0 0 0 770.706 40.247 Q 770.875 39.338 771.1 37.95 A 26.432 26.432 0 0 0 771.3 36.469 Q 771.374 35.757 771.393 35.127 A 14.033 14.033 0 0 0 771.4 34.7 Q 771.4 32.9 770.45 31.35 Q 769.524 29.84 766.652 29.801 A 11.309 11.309 0 0 0 766.5 29.8 A 9.434 9.434 0 0 0 764.539 29.99 Q 762.497 30.425 761.35 31.85 A 10.195 10.195 0 0 0 759.48 35.551 A 12.644 12.644 0 0 0 759.2 36.8 L 744.6 36.8 Z M 767.9 53.2 L 769.5 45.5 L 767.7 45.5 A 18.742 18.742 0 0 0 765.484 45.624 Q 764.358 45.758 763.398 46.038 A 10.138 10.138 0 0 0 762.75 46.25 A 11.476 11.476 0 0 0 761.123 46.985 Q 760.252 47.468 759.591 48.069 A 6.923 6.923 0 0 0 759.45 48.2 A 7.884 7.884 0 0 0 757.947 50.158 A 7.278 7.278 0 0 0 757.6 50.9 Q 757 52.4 757 53.9 A 7.332 7.332 0 0 0 757.119 55.267 Q 757.386 56.67 758.25 57.5 Q 759.5 58.7 761.2 58.7 A 6.283 6.283 0 0 0 763.87 58.084 A 8.777 8.777 0 0 0 765.35 57.2 Q 767.4 55.7 767.9 53.2 Z" id="15" vector-effect="non-scaling-stroke"/><path d="M 820.7 30.6 L 821.3 30.6 Q 823.4 28.6 826 26.9 Q 828.3 25.5 831.4 24.3 A 17.778 17.778 0 0 1 835.937 23.223 A 22.1 22.1 0 0 1 838.3 23.1 A 16.776 16.776 0 0 1 842.193 23.529 A 12.12 12.12 0 0 1 846.9 25.75 A 8.518 8.518 0 0 1 850.256 31.983 A 11.608 11.608 0 0 1 850.3 33 A 14.185 14.185 0 0 1 850.258 34.052 Q 850.188 34.994 850 36.15 A 103.624 103.624 0 0 1 849.494 39.009 A 117.528 117.528 0 0 1 849.3 40 Q 848.9 42 848.45 44.05 A 151.292 151.292 0 0 0 848.085 45.758 Q 847.923 46.539 847.787 47.241 A 87.26 87.26 0 0 0 847.7 47.7 L 843.5 67.2 L 823.2 67.2 L 828.7 41.1 Q 828.9 39.8 829.2 38.45 A 13.674 13.674 0 0 0 829.415 37.239 Q 829.5 36.584 829.5 36 A 4.91 4.91 0 0 0 829.39 34.932 Q 829.214 34.143 828.757 33.559 A 3.132 3.132 0 0 0 828.75 33.55 A 2.406 2.406 0 0 0 827.364 32.693 A 3.783 3.783 0 0 0 826.5 32.6 A 5.129 5.129 0 0 0 823.99 33.272 A 6.951 6.951 0 0 0 823.05 33.9 A 48.491 48.491 0 0 0 822.092 34.673 Q 821.183 35.428 820.584 36.017 A 13.678 13.678 0 0 0 820.5 36.1 L 813.9 67.2 L 793.5 67.2 L 802.6 24.2 L 818.9 24.2 L 820.7 30.6 Z" id="16" vector-effect="non-scaling-stroke"/><path d="M 879.3 30.6 L 879.9 30.6 Q 882 28.6 884.6 26.9 Q 886.9 25.5 890 24.3 A 17.778 17.778 0 0 1 894.537 23.223 A 22.1 22.1 0 0 1 896.9 23.1 A 16.776 16.776 0 0 1 900.793 23.529 A 12.12 12.12 0 0 1 905.5 25.75 A 8.518 8.518 0 0 1 908.856 31.983 A 11.608 11.608 0 0 1 908.9 33 A 14.185 14.185 0 0 1 908.858 34.052 Q 908.788 34.994 908.6 36.15 A 103.624 103.624 0 0 1 908.094 39.009 A 117.528 117.528 0 0 1 907.9 40 Q 907.5 42 907.05 44.05 A 151.292 151.292 0 0 0 906.685 45.758 Q 906.523 46.539 906.387 47.241 A 87.26 87.26 0 0 0 906.3 47.7 L 902.1 67.2 L 881.8 67.2 L 887.3 41.1 Q 887.5 39.8 887.8 38.45 A 13.674 13.674 0 0 0 888.015 37.239 Q 888.1 36.584 888.1 36 A 4.91 4.91 0 0 0 887.99 34.932 Q 887.814 34.143 887.357 33.559 A 3.132 3.132 0 0 0 887.35 33.55 A 2.406 2.406 0 0 0 885.964 32.693 A 3.783 3.783 0 0 0 885.1 32.6 A 5.129 5.129 0 0 0 882.59 33.272 A 6.951 6.951 0 0 0 881.65 33.9 A 48.491 48.491 0 0 0 880.692 34.673 Q 879.783 35.428 879.184 36.017 A 13.678 13.678 0 0 0 879.1 36.1 L 872.5 67.2 L 852.1 67.2 L 861.2 24.2 L 877.5 24.2 L 879.3 30.6 Z" id="17" vector-effect="non-scaling-stroke"/></g></svg>